<svg width="20" height="20" viewBox="0 0 20 20" fill="none" xmlns="http://www.w3.org/2000/svg">
<path fill-rule="evenodd" clip-rule="evenodd" d="M10 20C15.5228 20 20 15.5228 20 10C20 4.47715 15.5228 0 10 0C4.47715 0 0 4.47715 0 10C0 15.5228 4.47715 20 10 20ZM10.6401 7.4504V3.77637H6.72927C5.70519 3.77637 4.875 4.60638 4.875 5.63024V14.7985C4.875 15.8223 5.70519 16.6523 6.72927 16.6523H13.9778C15.0018 16.6523 15.832 15.8223 15.832 14.7985V8.83238H12.0224C11.2666 8.83238 10.6525 8.22596 10.6403 7.47325L10.6401 7.4504ZM7.13905 13.2143L12.7356 13.1974C12.9776 13.1967 13.1744 13.3923 13.1752 13.6343C13.1759 13.8728 12.9858 14.0674 12.7485 14.0736L12.7382 14.0738L7.1417 14.0906L7.13445 14.0906C6.89572 14.0874 6.70282 13.8933 6.70209 13.6538C6.70138 13.4152 6.89145 13.2206 7.12871 13.2144L7.13905 13.2143ZM7.13383 10.0964H10.155H10.155C10.3971 10.0964 10.5933 10.2926 10.5933 10.5346C10.5933 10.7731 10.4026 10.9671 10.1654 10.9726L10.155 10.9728H7.13383L7.12658 10.9727C6.88789 10.9688 6.69555 10.7742 6.69555 10.5346C6.69555 10.296 6.88622 10.102 7.12349 10.0965L7.13383 10.0964ZM11.2138 3.91449L11.2054 3.90665C11.1969 3.899 11.1883 3.89175 11.1795 3.88488V7.4504C11.1795 7.91114 11.5493 8.28552 12.0084 8.29296L12.0224 8.29307H15.74C15.7134 8.24776 15.6817 8.2057 15.6454 8.16773C15.6305 8.14761 15.6139 8.12878 15.5958 8.11147L11.2138 3.91449Z" fill="white" fill-opacity="0.8"/>
</svg>
