<svg width="28" height="28" viewBox="0 0 28 28" fill="none" xmlns="http://www.w3.org/2000/svg">
<path d="M13.9518 26.2224C20.4767 26.2224 25.7853 20.8575 25.7853 14.2636C25.7853 7.66953 20.4767 2.30469 13.9518 2.30469C7.42682 2.30469 2.11816 7.66959 2.11816 14.2636C2.11816 20.8575 7.42676 26.2224 13.9518 26.2224ZM13.9518 3.79954C19.6613 3.79954 24.3062 8.49351 24.3062 14.2636C24.3062 20.0334 19.6613 24.7275 13.9518 24.7275C8.24229 24.7275 3.59732 20.0334 3.59732 14.2636C3.59732 8.49348 8.24223 3.79954 13.9518 3.79954ZM8.035 15.0109H18.0831L14.908 18.2196C14.6192 18.5115 14.6192 18.9846 14.908 19.2765C14.9763 19.3459 15.0577 19.4009 15.1475 19.4385C15.2373 19.4761 15.3336 19.4954 15.431 19.4954C15.5283 19.4954 15.6247 19.4761 15.7144 19.4385C15.8042 19.4009 15.8856 19.3459 15.9539 19.2765L20.3915 14.7919C20.6804 14.5 20.6804 14.027 20.3915 13.735L15.9539 9.25033C15.8095 9.10439 15.6202 9.03147 15.431 9.03147C15.2417 9.03147 15.0526 9.10439 14.908 9.25033C14.6192 9.54233 14.6192 10.0152 14.908 10.3073L18.0831 13.5161H8.035C7.62612 13.5161 7.29543 13.8503 7.29543 14.2635C7.29543 14.6766 7.62607 15.0109 8.035 15.0109Z" fill="#00FF7E"/>
</svg>
