<svg width="35" height="35" viewBox="0 0 35 35" fill="none" xmlns="http://www.w3.org/2000/svg">
<path d="M27.166 27.1655C26.6875 27.644 25.9048 27.644 25.4263 27.1655L7.83398 9.57324C7.35547 9.09473 7.35547 8.31201 7.83398 7.8335C8.3125 7.35498 9.09522 7.35498 9.57373 7.8335L27.1694 25.4292C27.6445 25.9043 27.6445 26.687 27.166 27.1655Z" fill="white"/>
<path d="M27.166 7.83392C27.6445 8.31244 27.6445 9.09516 27.166 9.57367L9.57373 27.166C9.09522 27.6445 8.3125 27.6445 7.83398 27.166C7.35547 26.6874 7.35547 25.9047 7.83398 25.4262L25.4297 7.83051C25.9048 7.35541 26.6875 7.35541 27.166 7.83392Z" fill="white"/>
</svg>
