<svg width="14" height="14" viewBox="0 0 14 14" fill="none" xmlns="http://www.w3.org/2000/svg">
<path d="M13.9979 6.99982C13.9979 10.8468 10.8794 13.9655 7.0323 13.9655C3.18524 13.9655 0.066658 10.8468 0.066658 6.99982C0.066658 3.1527 3.18524 0.0341797 7.0323 0.0341797C10.8794 0.0341797 13.9979 3.1527 13.9979 6.99982Z" fill="white"/>
<path d="M7.0323 8.36669L5.66529 6.99982L7.0323 5.63281L8.3993 6.99982L7.0323 8.36669ZM10.1388 6.99982L10.1331 7.00546L11.4009 8.27328L12.6745 6.99975L11.3921 5.71738L10.1243 6.98519L10.1388 6.99982Z" fill="#F4BB0B"/>
<path d="M4.83513 6.09022L7.0323 3.89305L9.26179 6.12254L10.5295 4.8548L7.0323 1.35742L3.56732 4.82241L4.83513 6.09022ZM9.27057 7.86785L7.0323 10.1061L4.81389 7.88757L3.54614 9.15545L7.0323 12.6418L10.5384 9.13567L9.27057 7.86785ZM3.92584 6.99966L3.97265 6.95278L2.70476 5.68489L1.39021 6.99966L2.68358 8.29304L3.95133 7.02529L3.92584 6.99966Z" fill="#F4BB0B"/>
</svg>
