<svg width="14" height="14" viewBox="0 0 14 14" fill="none" xmlns="http://www.w3.org/2000/svg">
<path d="M12.5152 2.3131L11.246 1.04393C11.0258 0.823696 10.7271 0.699964 10.4156 0.699951H6.20511C5.55649 0.699951 5.03086 1.22572 5.03086 1.8742V3.04845H3.07366C2.42504 3.04845 1.89941 3.57415 1.89941 4.2227V12.0511C1.89941 12.6996 2.42525 13.2253 3.07366 13.2253H8.55361C9.20209 13.2253 9.72772 12.6995 9.72772 12.0511V10.8769H11.6849C12.3333 10.8769 12.8591 10.3511 12.8591 9.70265V3.14344C12.8591 2.98923 12.8288 2.83652 12.7698 2.69404C12.7108 2.55157 12.6243 2.42212 12.5152 2.3131ZM8.40668 12.0511H3.22038C3.20111 12.0511 3.18203 12.0473 3.16422 12.0399C3.14642 12.0325 3.13024 12.0217 3.11661 12.0081C3.10299 11.9945 3.09218 11.9783 3.08481 11.9605C3.07744 11.9427 3.07365 11.9236 3.07366 11.9043V4.36949C3.07366 4.28836 3.13932 4.2227 3.22038 4.2227H5.03079V9.70258C5.03079 10.3511 5.55649 10.8768 6.2049 10.8768H8.55347V11.9043C8.5535 11.9236 8.54972 11.9427 8.54236 11.9605C8.53499 11.9783 8.52418 11.9945 8.51054 12.0082C8.49691 12.0218 8.48071 12.0326 8.46289 12.04C8.44507 12.0473 8.42597 12.0511 8.40668 12.0511ZM11.5382 9.70258H6.35176C6.33248 9.70258 6.31339 9.69878 6.29558 9.6914C6.27777 9.68402 6.26159 9.6732 6.24797 9.65956C6.23434 9.64592 6.22354 9.62973 6.21617 9.61191C6.20881 9.5941 6.20503 9.575 6.20504 9.55572V2.02099C6.20504 1.93986 6.2707 1.8742 6.35176 1.8742H8.94505V4.02698C8.94504 4.10409 8.96022 4.18044 8.98972 4.25167C9.01922 4.32291 9.06247 4.38764 9.11698 4.44216C9.1715 4.49669 9.23623 4.53994 9.30746 4.56945C9.37869 4.59895 9.45504 4.61414 9.53214 4.61414H11.6849V9.55593C11.6849 9.63692 11.6191 9.70258 11.5382 9.70258ZM11.6849 3.43989H10.1192V1.8742H10.3549C10.3939 1.8742 10.4311 1.88967 10.4587 1.91718L11.6418 3.10046C11.6693 3.12804 11.6847 3.16528 11.6847 3.20427V3.43989H11.6849Z" fill="#FFF1F1"/>
</svg>
