<svg width="18" height="18" viewBox="0 0 18 18" fill="none" xmlns="http://www.w3.org/2000/svg">
<path d="M8.15625 13.7876C8.15625 14.2536 8.53401 14.6314 9.00001 14.6314C9.466 14.6314 9.84377 14.2536 9.84377 13.7876C9.84377 13.3216 9.466 12.9438 9.00001 12.9438C8.53401 12.9438 8.15625 13.3216 8.15625 13.7876Z" fill="#14FD87"/>
<path d="M9 16.875C4.65751 16.875 1.125 13.3425 1.125 9C1.125 4.65751 4.65751 1.125 9 1.125C13.3425 1.125 16.875 4.65751 16.875 9C16.875 13.3425 13.3425 16.875 9 16.875ZM9 2.25505C5.28074 2.25505 2.25505 5.28074 2.25505 9C2.25505 12.7187 5.28074 15.7449 9 15.7449C12.7187 15.7449 15.7449 12.7187 15.7449 9C15.7449 5.28074 12.7187 2.25505 9 2.25505Z" fill="#14FD87"/>
<path d="M9.00002 11.8425C8.6895 11.8425 8.4375 11.5905 8.4375 11.28V10.3288C8.4375 9.40854 9.14062 8.70542 9.76162 8.085C10.2167 7.62937 10.6875 7.15911 10.6875 6.78392C10.6875 5.84625 9.93037 5.0835 9.00002 5.0835C8.0539 5.0835 7.31253 5.81362 7.31253 6.74567C7.31253 7.05618 7.06053 7.30816 6.75002 7.30816C6.4395 7.30816 6.1875 7.05615 6.1875 6.74567C6.1875 5.20892 7.44918 3.9585 9.00002 3.9585C10.5509 3.9585 11.8125 5.2258 11.8125 6.78392C11.8125 7.62599 11.1741 8.26386 10.557 8.88092C10.0677 9.36917 9.56253 9.87429 9.56253 10.3282V11.2794C9.56253 11.5899 9.31053 11.8425 9.00002 11.8425Z" fill="#14FD87"/>
</svg>
