<svg width="20" height="20" viewBox="0 0 20 20" fill="none" xmlns="http://www.w3.org/2000/svg">
<path fill-rule="evenodd" clip-rule="evenodd" d="M2.92893 17.0711C1.05357 15.1957 0 12.6522 0 10C0 7.34784 1.05357 4.8043 2.92893 2.92893C4.8043 1.05357 7.34784 0 10 0C12.6522 0 15.1957 1.05357 17.0711 2.92893C18.9464 4.8043 20 7.34784 20 10C20 12.6522 18.9464 15.1957 17.0711 17.0711C15.1957 18.9464 12.6522 20 10 20C7.34784 20 4.8043 18.9464 2.92893 17.0711ZM9.99999 5.86664C7.76665 5.86664 6.19999 6.82498 6.19999 6.82498C7.05833 6.05832 8.55833 5.61664 8.55833 5.61664L8.41665 5.47498C7.00833 5.49998 5.73333 6.47498 5.73333 6.47498C4.29999 9.46664 4.39165 12.05 4.39165 12.05C5.55833 13.5583 7.29165 13.45 7.29165 13.45L7.88333 12.7C6.84165 12.475 6.18333 11.55 6.18333 11.55C6.18333 11.55 7.74999 12.6166 9.99999 12.6166C12.25 12.6166 13.8167 11.55 13.8167 11.55C13.8167 11.55 13.1583 12.475 12.1167 12.7L12.7083 13.45C12.7083 13.45 14.4417 13.5583 15.6083 12.05C15.6083 12.05 15.7 9.46664 14.2667 6.47498C14.2667 6.47498 12.9917 5.49998 11.5833 5.47498L11.4417 5.61664C11.4417 5.61664 12.9417 6.05832 13.8 6.82498C13.8 6.82498 12.2333 5.86664 9.99999 5.86664ZM8.27499 9.02498C8.81665 9.02498 9.25833 9.49998 9.24999 10.0833C9.24999 10.6583 8.81665 11.1416 8.27499 11.1416C7.74165 11.1416 7.30833 10.6583 7.30833 10.0833C7.30833 9.49998 7.73333 9.02498 8.27499 9.02498ZM11.75 9.02498C12.2917 9.02498 12.725 9.49998 12.725 10.0833C12.725 10.6583 12.2917 11.1416 11.75 11.1416C11.2167 11.1416 10.7833 10.6583 10.7833 10.0833C10.7833 9.49998 11.2083 9.02498 11.75 9.02498Z" fill="white" fill-opacity="0.8"/>
</svg>
