<svg width="20" height="20" viewBox="0 0 20 20" fill="none" xmlns="http://www.w3.org/2000/svg">
<path fill-rule="evenodd" clip-rule="evenodd" d="M10 20C15.5228 20 20 15.5228 20 10C20 4.47715 15.5228 0 10 0C4.47715 0 0 4.47715 0 10C0 15.5228 4.47715 20 10 20ZM10.6401 7.45528V3.78125H6.72927C5.70519 3.78125 4.875 4.61126 4.875 5.63513V14.8033C4.875 15.8272 5.70519 16.6572 6.72927 16.6572H13.9778C15.0018 16.6572 15.832 15.8272 15.832 14.8033V8.83726H12.0224C11.2666 8.83726 10.6525 8.23084 10.6403 7.47813L10.6401 7.45528ZM7.13905 13.2191L12.7356 13.2023C12.9776 13.2016 13.1744 13.3972 13.1752 13.6392C13.1759 13.8777 12.9858 14.0723 12.7485 14.0785L12.7382 14.0787L7.1417 14.0955L7.13445 14.0955C6.89572 14.0923 6.70282 13.8982 6.70209 13.6586C6.70138 13.4201 6.89145 13.2255 7.12871 13.2193L7.13905 13.2191ZM7.13383 10.1013H10.155H10.155C10.3971 10.1013 10.5933 10.2975 10.5933 10.5395C10.5933 10.778 10.4026 10.972 10.1654 10.9775L10.155 10.9776H7.13383L7.12658 10.9776C6.88789 10.9737 6.69555 10.779 6.69555 10.5395C6.69555 10.3009 6.88622 10.1069 7.12349 10.1014L7.13383 10.1013ZM11.2138 3.91937L11.2054 3.91153C11.1969 3.90389 11.1883 3.89664 11.1795 3.88977V7.45528C11.1795 7.91602 11.5493 8.29041 12.0084 8.29785L12.0224 8.29795H15.74C15.7134 8.25264 15.6817 8.21058 15.6454 8.17262C15.6305 8.15249 15.6139 8.13367 15.5958 8.11635L11.2138 3.91937Z" fill="black"/>
</svg>
