<svg width="24" height="24" viewBox="0 0 24 24" fill="none" xmlns="http://www.w3.org/2000/svg">
<g clip-path="url(#clip0_605_4178)">
<path d="M0 12C0 15.1826 1.26428 18.2348 3.51472 20.4853C5.76516 22.7357 8.8174 24 12 24C15.1826 24 18.2348 22.7357 20.4853 20.4853C22.7357 18.2348 24 15.1826 24 12C24 8.8174 22.7357 5.76516 20.4853 3.51472C18.2348 1.26428 15.1826 0 12 0C8.8174 0 5.76516 1.26428 3.51472 3.51472C1.26428 5.76516 0 8.8174 0 12Z" fill="url(#paint0_linear_605_4178)"/>
<rect x="6" y="8" width="12" height="1.2" rx="0.6" fill="white"/>
<rect x="6" y="11" width="8" height="1.2" rx="0.6" fill="white"/>
<rect x="6" y="14" width="8" height="1.2" rx="0.6" fill="white"/>
</g>
<defs>
<linearGradient id="paint0_linear_605_4178" x1="-0.5" y1="9.5" x2="21" y2="19" gradientUnits="userSpaceOnUse">
<stop stop-color="#02B78B"/>
<stop offset="1" stop-color="#00FF57"/>
</linearGradient>
<clipPath id="clip0_605_4178">
<rect width="24" height="24" fill="white"/>
</clipPath>
</defs>
</svg>
