<svg width="20" height="20" viewBox="0 0 20 20" fill="none" xmlns="http://www.w3.org/2000/svg">
<path d="M16.5309 7.47327C16.1996 6.83431 15.7086 6.42067 15.0898 6.25252V6.25084C12.8333 5.59842 7.56858 4.07836 7.56858 4.07836L7.56354 4.07668C7.01537 3.92535 6.36128 3.99933 5.72232 4.28687C5.07999 4.5744 4.49652 5.06203 4.07951 5.65896C3.31276 6.75696 3 7.78771 3 9.21528L3.19841 12.6505C3.21523 12.9465 3.31107 13.2424 3.49099 13.5047C3.67091 13.767 3.91304 13.9621 4.18376 14.0848L10.0639 16.7483C10.2774 16.8458 10.5145 16.8996 10.7651 16.898C11.0156 16.8963 11.251 16.8408 11.4646 16.7416L15.9575 14.6599C16.2349 14.5321 16.4804 14.327 16.6587 14.0529C16.8369 13.7788 16.926 13.4711 16.9311 13.1668L17 9.67097C17 9.1867 16.9395 8.25852 16.5309 7.47327ZM10.0084 6.07764L8.81792 5.6909C8.70862 5.65391 8.58924 5.71444 8.55393 5.82542C8.51693 5.93472 8.57747 6.0541 8.68845 6.08941L9.58131 6.37863C9.06342 6.79227 8.67499 7.28663 8.46481 7.64983C8.40932 7.74735 8.35551 7.84488 8.30339 7.9424L8.01081 7.82806C7.90151 7.78603 7.78045 7.83983 7.73841 7.94745C7.69637 8.05675 7.75018 8.17781 7.85779 8.21985L8.11674 8.32074C7.99904 8.578 7.89983 8.842 7.8208 9.12448L7.276 8.91262C7.16671 8.87058 7.04564 8.92439 7.0036 9.032C6.96157 9.1413 7.01537 9.26237 7.12299 9.3044L7.72496 9.53813C7.67451 9.80212 7.64088 10.0829 7.62743 10.3906L5.72063 9.65415C5.75258 8.82182 5.94259 8.18622 6.2318 7.58761L7.14989 7.94409C7.17511 7.95418 7.20034 7.95922 7.22556 7.95922C7.30963 7.95922 7.39034 7.90878 7.42229 7.8247C7.46433 7.7154 7.41052 7.59434 7.30291 7.5523L6.42854 7.21264C6.45208 7.17229 6.47394 7.13025 6.49748 7.08989C6.59164 6.92679 6.72616 6.7351 6.89599 6.53501L8.11842 6.97555C8.14196 6.98396 8.16551 6.98732 8.18905 6.98732C8.27648 6.98732 8.35719 6.9352 8.38746 6.84944C8.42782 6.74015 8.37065 6.61908 8.26135 6.58041L7.21042 6.20207C7.38194 6.03729 7.57699 5.87755 7.79054 5.73798C8.05621 5.56311 8.40596 5.38319 8.79942 5.31089C9.30387 5.45718 9.90079 5.62869 10.5313 5.81029C10.3565 5.88091 10.1833 5.97003 10.0084 6.07764ZM7.69469 12.247L6.76483 11.8754C6.65722 11.8333 6.53615 11.8855 6.49243 11.9931C6.4504 12.1007 6.50252 12.2218 6.61014 12.2655L7.71991 12.7094L7.76868 13.6073L7.49628 13.4896C7.39034 13.4442 7.26591 13.493 7.22051 13.5989C7.17511 13.7048 7.22388 13.8293 7.32981 13.8747L7.7939 14.0764L7.83425 14.8197L5.93418 13.9587L5.89551 13.2525L6.60846 13.5602C6.63704 13.572 6.66394 13.577 6.69253 13.577C6.77324 13.577 6.85059 13.53 6.88422 13.4509C6.92962 13.345 6.88086 13.2206 6.77492 13.1752L5.87029 12.7834L5.8232 11.9494L5.91737 11.9864C5.94259 11.9965 5.96949 12.0015 5.99472 12.0015C6.07879 12.0015 6.15782 11.9511 6.18977 11.8687C6.2318 11.761 6.17968 11.64 6.07206 11.5963L5.79798 11.487L5.74586 10.5638L7.64425 11.297L7.69469 12.247ZM4.7706 6.14154C5.48859 5.11247 6.6404 4.69715 7.3399 4.88884C7.36848 4.89724 7.64257 4.97627 8.07471 5.1007C7.90319 5.17805 7.73 5.27221 7.55849 5.38656C6.88422 5.82878 6.37809 6.44757 6.13091 6.87971C5.68364 7.65823 5.36752 8.42331 5.30531 9.49273L3.84578 8.92943C3.87605 7.99621 4.0711 7.14202 4.7706 6.14154ZM4.2073 13.0154C4.09969 12.8574 4.04252 12.6808 4.03243 12.5026L3.87941 9.84416L5.31203 10.3974L5.49868 13.7603L4.62095 13.3635C4.46121 13.2895 4.31492 13.1735 4.2073 13.0154ZM10.1766 15.7075C10.0773 15.7731 9.9546 15.7781 9.85371 15.7327L8.26303 15.013L8.07302 11.4651L9.64353 12.0721C9.82513 12.1427 9.98823 12.2655 10.1076 12.437C10.227 12.6085 10.2859 12.8036 10.2892 12.9986L10.3262 15.4233C10.3296 15.5326 10.2758 15.6419 10.1766 15.7075ZM10.6322 9.82062C10.5482 10.0762 10.4792 10.3335 10.4254 10.5941C10.3767 10.7454 10.2808 10.9707 10.0992 11.0733C9.91424 11.1776 9.70238 11.191 9.51742 11.1204L8.04444 10.5504C8.06798 9.42042 8.37737 8.64694 8.82969 7.86001C9.05669 7.46655 9.51742 6.90157 10.1362 6.49465C10.4422 6.29287 10.8559 6.08605 11.3183 6.03729C11.9152 6.2088 12.5189 6.38367 13.0838 6.54678C13.0115 6.58713 12.9392 6.63085 12.8686 6.67793C12.3961 6.98732 11.9438 7.43628 11.5587 7.97435C11.1703 8.51747 10.8508 9.15475 10.6322 9.82062ZM16.1004 12.6287C16.0937 12.933 16.0062 13.2407 15.828 13.5148C15.6498 13.7889 15.4043 13.9941 15.1268 14.1218L11.6445 15.7361C11.5453 15.7831 11.4242 15.7781 11.325 15.7159C11.2241 15.6537 11.1686 15.5461 11.1669 15.4368L11.13 13.0037C11.1266 12.8069 11.1821 12.6051 11.2998 12.4286C11.4175 12.252 11.5823 12.1242 11.7656 12.0503L16.1475 10.2982L16.1004 12.6287ZM11.7874 11.1355C11.2123 11.3558 11.2157 10.9018 11.2712 10.6614C11.4511 9.86602 11.784 9.10431 12.2414 8.46366C12.8921 7.5523 13.7077 7.00918 14.4206 7.00918C15.0411 7.0075 15.4867 7.28663 15.786 7.86169C16.0466 8.36446 16.129 8.96306 16.1525 9.39016L11.7874 11.1355Z" fill="#068343"/>
<path d="M6.57697 8.64189L6.36678 8.56118C6.25749 8.51914 6.13642 8.57295 6.09438 8.68057C6.05235 8.78986 6.10616 8.91093 6.21377 8.95297L6.42395 9.03368C6.44918 9.04377 6.4744 9.04881 6.49962 9.04881C6.5837 9.04881 6.66272 8.99837 6.69635 8.91429C6.73839 8.805 6.68458 8.68393 6.57697 8.64189Z" fill="#068343"/>
</svg>
