<svg width="20" height="20" viewBox="0 0 20 20" fill="none" xmlns="http://www.w3.org/2000/svg">
<path d="M6.28613 10.4994C6.28613 11.3519 6.62478 12.1695 7.22758 12.7723C7.83037 13.3751 8.64794 13.7137 9.50042 13.7137C10.3529 13.7137 11.1705 13.3751 11.7733 12.7723C12.3761 12.1695 12.7147 11.3519 12.7147 10.4994C12.7147 9.64696 12.3761 8.82939 11.7733 8.2266C11.1705 7.6238 10.3529 7.28516 9.50042 7.28516C8.64794 7.28516 7.83037 7.6238 7.22758 8.2266C6.62478 8.82939 6.28613 9.64696 6.28613 10.4994Z" fill="white"/>
<path d="M17 10.5C17 9.60268 16.8425 8.72679 16.5377 7.90179C16.4864 7.77136 16.3861 7.6662 16.2583 7.60886C16.1304 7.55153 15.9851 7.54658 15.8537 7.59508C15.7222 7.64357 15.615 7.74165 15.555 7.86829C15.4949 7.99493 15.4869 8.14004 15.5327 8.2725C15.7936 8.97964 15.9286 9.73018 15.9286 10.5C15.9286 10.8691 15.8905 11.2291 15.8305 11.5811C15.5651 11.6047 15.318 11.7268 15.1379 11.9232C14.9579 12.1197 14.8577 12.3763 14.8571 12.6429C14.8571 12.9589 14.9964 13.2402 15.2145 13.4362C14.1473 15.5084 11.9916 16.9286 9.5 16.9286C5.94982 16.9286 3.07143 14.0502 3.07143 10.5C3.07143 10.1309 3.10946 9.77089 3.16946 9.41893C3.43492 9.39527 3.68195 9.27324 3.86205 9.07679C4.04215 8.88033 4.14231 8.62365 4.14286 8.35714C4.14286 8.04107 4.00357 7.75982 3.78554 7.56375C4.85268 5.49161 7.00839 4.07143 9.5 4.07143C10.0577 4.07143 10.602 4.15071 11.1291 4.28839C11.1847 4.54647 11.3336 4.77496 11.5472 4.93014C11.7607 5.08531 12.0241 5.15625 12.2867 5.12938C12.5493 5.10252 12.7928 4.97973 12.9705 4.78452C13.1483 4.58932 13.2478 4.33542 13.25 4.07143C13.25 3.78727 13.1371 3.51475 12.9362 3.31381C12.7353 3.11288 12.4627 3 12.1786 3C11.9064 3 11.6605 3.105 11.4714 3.27214C10.8293 3.09443 10.1663 3.00291 9.5 3C6.48179 3 3.88732 4.78661 2.6975 7.35643C2.49308 7.43223 2.31672 7.56871 2.19206 7.74757C2.06739 7.92643 2.00038 8.13912 2 8.35714C2 8.56768 2.06268 8.76268 2.16768 8.92821C2.05674 9.4448 2.00054 9.97164 2 10.5C2 14.6421 5.35786 18 9.5 18C12.5182 18 15.1127 16.2134 16.3025 13.6436C16.5069 13.5678 16.6833 13.4313 16.8079 13.2524C16.9326 13.0736 16.9996 12.8609 17 12.6429C17 12.4323 16.9373 12.2373 16.8323 12.0718C16.9405 11.5645 17 11.0395 17 10.5Z" fill="white"/>
</svg>
