<svg width="18" height="18" viewBox="0 0 18 18" fill="none" xmlns="http://www.w3.org/2000/svg">
<g clip-path="url(#clip0_692_5300)">
<path d="M14.9206 14.1606C16.1686 12.7322 16.8503 10.9224 16.8503 9.00769C16.8503 6.91229 16.0343 4.94227 14.5526 3.46058C13.0937 2.00166 11.1612 1.18874 9.10193 1.16408C9.06809 1.15353 8.92105 1.15366 8.88699 1.16435C6.83594 1.19453 4.9121 2.00688 3.4584 3.46058C2.00168 4.91732 1.18899 6.84615 1.16201 8.90202C1.15447 8.93101 1.15432 9.05322 1.16163 9.08179C1.18066 11.1495 1.99421 13.0906 3.4584 14.5548C4.94009 16.0365 6.9101 16.8525 9.00552 16.8525C11.1009 16.8525 13.0709 16.0365 14.5526 14.5548C14.6606 14.4469 14.7645 14.3361 14.8653 14.2231C14.8743 14.2151 14.8829 14.2068 14.8912 14.1978C14.902 14.1859 14.9116 14.1734 14.9206 14.1606ZM1.88889 9.3525H5.18482C5.20806 10.507 5.34748 11.5896 5.58042 12.5537C4.49603 12.847 3.80821 13.2282 3.45212 13.4661C2.53687 12.3284 1.96324 10.9049 1.88889 9.3525ZM3.4434 4.56008C3.79655 4.79839 4.48477 5.18343 5.57634 5.47872C5.34786 6.43018 5.21023 7.4963 5.18534 8.63281H1.89028C1.97027 7.09701 2.53912 5.68867 3.4434 4.56008ZM16.1208 8.63279H12.8257C12.8008 7.4967 12.6632 6.43094 12.4349 5.47973C13.524 5.18629 14.2145 4.80394 14.5718 4.5653C15.4737 5.69303 16.0409 7.09939 16.1208 8.63279ZM12.1058 8.63279H9.35468V5.88992C10.2724 5.87067 11.0616 5.77647 11.7325 5.64324C11.9533 6.5597 12.0814 7.57453 12.1058 8.63279ZM9.35468 5.17018V1.93233C10.0023 2.11513 10.634 2.79728 11.1288 3.8662C11.2837 4.20081 11.4214 4.56303 11.5412 4.94763C10.9255 5.06667 10.2001 5.15167 9.35468 5.17018ZM8.63497 1.93858V5.16953C7.79992 5.14972 7.08143 5.06403 6.47075 4.94448C6.5904 4.56105 6.72779 4.19988 6.88224 3.86617C7.37159 2.80902 7.99487 2.13022 8.63497 1.93858ZM8.63497 5.88956V8.63279H5.90517C5.92964 7.57435 6.05775 6.55936 6.2786 5.64277C6.94368 5.77523 7.72554 5.86929 8.63497 5.88956ZM5.90454 9.3525H8.63497V12.1416C7.72777 12.1626 6.94712 12.257 6.28263 12.3895C6.05719 11.4598 5.92741 10.4283 5.90454 9.3525ZM8.63497 12.8616V16.0768C7.99485 15.8852 7.37159 15.2064 6.88225 14.1492C6.72968 13.8196 6.5938 13.4631 6.47519 13.0848C7.08409 12.9666 7.80087 12.8818 8.63497 12.8616ZM9.35468 16.0831V12.8605C10.1967 12.8785 10.9209 12.9635 11.5364 13.083C11.4177 13.4619 11.2816 13.819 11.1288 14.1492C10.634 15.2181 10.0023 15.9003 9.35468 16.0831ZM9.35468 12.1407V9.3525H12.1065C12.0836 10.4265 11.9542 11.4563 11.7295 12.3848C11.0595 12.2524 10.2714 12.1592 9.35468 12.1407ZM12.8262 9.3525H16.1221C16.0479 10.9018 15.4764 12.3227 14.5644 13.4594C14.2045 13.2191 13.5161 12.8389 12.4321 12.5476C12.6641 11.585 12.803 10.5046 12.8262 9.3525ZM14.0894 4.02104C13.7672 4.22443 13.1699 4.53706 12.2462 4.78558C11.907 3.67717 11.4356 2.76402 10.874 2.13169C12.1115 2.46834 13.216 3.13079 14.0894 4.02104ZM7.13703 2.13169C6.57619 2.7631 6.10536 3.67451 5.76631 4.78076C4.84515 4.53042 4.24808 4.21652 3.92795 4.01457C4.80034 3.12757 5.90251 2.46753 7.13703 2.13169ZM3.93623 14.0093C4.25763 13.8065 4.85202 13.4955 5.77019 13.2475C6.10896 14.348 6.57837 15.2547 7.13703 15.8837C5.90641 15.5489 4.80731 14.892 3.93623 14.0093ZM10.874 15.8837C11.433 15.2543 11.9026 14.3469 12.2414 13.2455C13.1552 13.492 13.7527 13.8016 14.0789 14.005C13.2072 14.8899 12.1066 15.5484 10.874 15.8837Z" fill="white" stroke="white" stroke-width="0.5"/>
</g>
<defs>
<clipPath id="clip0_692_5300">
<rect width="18" height="18" fill="white"/>
</clipPath>
</defs>
</svg>
