<svg width="16" height="16" viewBox="0 0 16 16" fill="none" xmlns="http://www.w3.org/2000/svg">
<path d="M13.7643 13.0044C15.0124 11.576 15.6941 9.76617 15.6941 7.85144C15.6941 5.75604 14.8781 3.78602 13.3964 2.30433C11.9375 0.84541 10.005 0.0324866 7.94568 0.00782538C7.91184 -0.00271547 7.7648 -0.00258955 7.73074 0.00809521C5.67969 0.0382787 3.75585 0.850626 2.30215 2.30433C0.845426 3.76107 0.0327372 5.6899 0.00575553 7.74577C-0.00178136 7.77476 -0.00192519 7.89697 0.00537787 7.92554C0.024409 9.99322 0.837961 11.9344 2.30215 13.3986C3.78384 14.8802 5.75385 15.6962 7.84927 15.6962C9.94466 15.6962 11.9147 14.8802 13.3964 13.3986C13.5043 13.2906 13.6083 13.1798 13.7091 13.0668C13.718 13.0589 13.7267 13.0505 13.7349 13.0415C13.7458 13.0297 13.7554 13.0172 13.7643 13.0044ZM0.732643 8.19625H4.02857C4.05181 9.35076 4.19123 10.4333 4.42417 11.3975C3.33978 11.6908 2.65196 12.072 2.29587 12.3099C1.38062 11.1721 0.806986 9.74864 0.732643 8.19625ZM2.28715 3.40383C2.6403 3.64214 3.32852 4.02718 4.42009 4.32247C4.19161 5.27393 4.05398 6.34005 4.02909 7.47656H0.734028C0.81402 5.94076 1.38287 4.53242 2.28715 3.40383ZM14.9645 7.47654H11.6694C11.6445 6.34045 11.507 5.27469 11.2787 4.32348C12.3677 4.03004 13.0582 3.64769 13.4156 3.40905C14.3174 4.53678 14.8846 5.94314 14.9645 7.47654ZM10.9496 7.47654H8.19843V4.73367C9.11616 4.71442 9.90532 4.62022 10.5763 4.48699C10.7971 5.40345 10.9251 6.41828 10.9496 7.47654ZM8.19843 4.01393V0.776084C8.84602 0.958876 9.47775 1.64103 9.97253 2.70995C10.1274 3.04456 10.2651 3.40678 10.385 3.79138C9.76928 3.91042 9.04384 3.99542 8.19843 4.01393ZM7.47872 0.782326V4.01328C6.64367 3.99347 5.92518 3.90778 5.3145 3.78823C5.43415 3.4048 5.57154 3.04363 5.72599 2.70992C6.21534 1.65277 6.83862 0.973968 7.47872 0.782326ZM7.47872 4.73331V7.47654H4.74892C4.77339 6.4181 4.9015 5.40311 5.12235 4.48652C5.78743 4.61898 6.56929 4.71304 7.47872 4.73331ZM4.74829 8.19625H7.47872V10.9853C6.57152 11.0063 5.79087 11.1007 5.12638 11.2332C4.90094 10.3036 4.77116 9.27203 4.74829 8.19625ZM7.47872 11.7053V14.9206C6.8386 14.7289 6.21534 14.0501 5.726 12.993C5.57343 12.6633 5.43755 12.3068 5.31894 11.9286C5.92784 11.8103 6.64462 11.7255 7.47872 11.7053ZM8.19843 14.9268V11.7042C9.04049 11.7223 9.7647 11.8073 10.3802 11.9267C10.2614 12.3056 10.1253 12.6628 9.97253 12.9929C9.47775 14.0619 8.84602 14.744 8.19843 14.9268ZM8.19843 10.9844V8.19625H10.9502C10.9274 9.27021 10.798 10.3001 10.5732 11.2285C9.90327 11.0961 9.11516 11.0029 8.19843 10.9844ZM11.67 8.19625H14.9659C14.8917 9.74556 14.3202 11.1665 13.4081 12.3031C13.0483 12.0629 12.3598 11.6826 11.2758 11.3914C11.5079 10.4288 11.6468 9.34835 11.67 8.19625ZM12.9331 2.86479C12.6109 3.06818 12.0136 3.38081 11.0899 3.62933C10.7507 2.52092 10.2794 1.60777 9.71773 0.975443C10.9553 1.31209 12.0597 1.97454 12.9331 2.86479ZM5.98078 0.975443C5.41994 1.60685 4.94911 2.51826 4.61006 3.62451C3.6889 3.37417 3.09183 3.06027 2.7717 2.85832C3.64409 1.97132 4.74626 1.31128 5.98078 0.975443ZM2.77998 12.853C3.10138 12.6503 3.69577 12.3392 4.61394 12.0913C4.95271 13.1918 5.42212 14.0985 5.98078 14.7274C4.75016 14.3927 3.65106 13.7358 2.77998 12.853ZM9.71773 14.7274C10.2767 14.0981 10.7464 13.1907 11.0852 12.0893C11.999 12.3358 12.5964 12.6453 12.9227 12.8488C12.0509 13.7337 10.9503 14.3922 9.71773 14.7274Z" fill="black"/>
</svg>
