<svg width="35" height="35" viewBox="0 0 35 35" fill="none" xmlns="http://www.w3.org/2000/svg">
<path d="M17.5408 29.941C16.8124 29.941 16.0819 29.874 15.3567 29.74C15.2671 29.7235 15.1816 29.6895 15.1052 29.64C15.0287 29.5905 14.9628 29.5265 14.9111 29.4515C14.8594 29.3765 14.823 29.292 14.8039 29.203C14.7849 29.1139 14.7835 29.0219 14.8 28.9324C14.8165 28.8428 14.8505 28.7573 14.9 28.6809C14.9495 28.6044 15.0135 28.5385 15.0885 28.4868C15.1635 28.4351 15.248 28.3987 15.337 28.3796C15.4261 28.3605 15.5181 28.3592 15.6076 28.3757C18.1277 28.8409 20.731 28.3802 22.9384 27.0784L22.9437 27.0752C24.2037 26.3539 25.3081 25.3899 26.193 24.2388C27.0779 23.0878 27.7257 21.7727 28.0989 20.3697C28.4729 18.9769 28.5677 17.5239 28.3777 16.0944C28.1877 14.6649 27.7167 13.2871 26.9919 12.0404C26.3208 10.8728 25.4398 9.83922 24.3931 8.99173C24.2593 8.87314 24.1764 8.7075 24.1617 8.52931C24.147 8.35113 24.2015 8.17413 24.314 8.03517C24.4265 7.89622 24.5883 7.80601 24.7657 7.78335C24.943 7.76068 25.1223 7.8073 25.2661 7.91349C26.4438 8.86674 27.4351 10.0294 28.1904 11.3428C29.0077 12.7475 29.5389 14.3001 29.7534 15.911C29.9678 17.522 29.8612 19.1595 29.4398 20.7291C29.02 22.3086 28.2911 23.7892 27.2952 25.0852C26.2994 26.3811 25.0564 27.4666 23.6381 28.2789C21.79 29.3661 19.685 29.9399 17.5408 29.941ZM9.4274 26.6711C9.25175 26.6715 9.08256 26.6049 8.9542 26.485C8.0429 25.6344 7.3379 24.7262 6.80196 23.7118C5.98771 22.3082 5.45891 20.7575 5.24594 19.1489C5.03298 17.5403 5.14006 15.9054 5.56102 14.3383C5.98112 12.7585 6.71051 11.2777 7.70694 9.98171C8.70337 8.68575 9.94703 7.60037 11.3659 6.78846C13.4295 5.59949 15.793 5.03263 18.1714 5.1562C18.2624 5.1606 18.3516 5.18287 18.434 5.22175C18.5163 5.26063 18.5902 5.31536 18.6514 5.3828C18.7127 5.45024 18.76 5.52908 18.7908 5.61481C18.8215 5.70055 18.8351 5.7915 18.8307 5.88247C18.8263 5.97345 18.804 6.06267 18.7651 6.14504C18.7262 6.22741 18.6715 6.30131 18.6041 6.36253C18.5366 6.42375 18.4578 6.47109 18.3721 6.50184C18.2863 6.53259 18.1954 6.54616 18.1044 6.54176C15.9918 6.43129 13.8924 6.93426 12.0592 7.99005C10.7988 8.71135 9.69396 9.6755 8.8087 10.8267C7.92345 11.9779 7.27535 13.2933 6.90192 14.6967C6.52661 16.0942 6.43251 17.5524 6.62509 18.9865C6.81767 20.4207 7.29308 21.8024 8.02376 23.0515C8.48739 23.933 9.10094 24.7241 9.90165 25.4706C10.0034 25.5657 10.0742 25.6893 10.1048 25.8252C10.1355 25.9612 10.1245 26.1031 10.0733 26.2327C10.0222 26.3623 9.93322 26.4736 9.81802 26.5519C9.70283 26.6303 9.56672 26.6722 9.4274 26.6722V26.6711ZM17.5408 30.0792C16.805 30.0792 16.0628 30.0111 15.3322 29.8772C15.2244 29.8577 15.1215 29.8171 15.0295 29.7576C14.9375 29.6981 14.8582 29.6209 14.7963 29.5305C14.734 29.4406 14.6903 29.3392 14.6674 29.2322C14.6446 29.1253 14.6432 29.0149 14.6634 28.9074C14.6828 28.7998 14.7233 28.6972 14.7826 28.6054C14.842 28.5135 14.9189 28.4344 15.009 28.3725C15.0989 28.3099 15.2005 28.2659 15.3076 28.2429C15.4148 28.2199 15.5254 28.2184 15.6332 28.2385C18.1202 28.6984 20.6897 28.2441 22.8682 26.9593L22.8757 26.955C24.1197 26.2427 25.21 25.2906 26.0836 24.1541C26.9571 23.0175 27.5966 21.7189 27.9649 20.3335C28.3341 18.9584 28.4276 17.5237 28.24 16.1123C28.0524 14.7008 27.5874 13.3405 26.8718 12.1095C26.2093 10.9562 25.3394 9.93528 24.3059 9.09807C24.1477 8.95508 24.0503 8.75691 24.0338 8.54432C24.0172 8.33173 24.0828 8.12088 24.2169 7.95513C24.3511 7.78938 24.5436 7.68134 24.755 7.65322C24.9664 7.6251 25.1805 7.67905 25.3533 7.80396C26.5443 8.76843 27.5119 9.90303 28.3105 11.2705C29.1371 12.6911 29.6744 14.2613 29.8912 15.8905C30.108 17.5197 30.0001 19.1758 29.5738 20.7631C29.1493 22.3602 28.4122 23.8573 27.4052 25.1677C26.3982 26.478 25.1413 27.5756 23.7072 28.397C21.8383 29.4969 19.7094 30.0776 17.5408 30.0792ZM15.4811 28.5033C15.3514 28.5028 15.2257 28.548 15.1261 28.6311C15.0265 28.7142 14.9594 28.8297 14.9367 28.9573C14.916 29.0654 14.9283 29.1773 14.9719 29.2783C15.0155 29.3793 15.0884 29.465 15.1812 29.5241C15.2423 29.5637 15.3106 29.5908 15.3822 29.6039C18.1959 30.122 21.1021 29.6086 23.5679 28.1577C24.9704 27.3547 26.1997 26.2814 27.1847 25.0001C28.1696 23.7188 28.8905 22.2548 29.3058 20.6929C29.7228 19.1408 29.8284 17.5216 29.6165 15.9285C29.4046 14.3354 28.8795 12.8 28.0713 11.4109C27.3244 10.1116 26.3438 8.9616 25.1789 8.01876C25.0637 7.9325 24.9195 7.89426 24.7767 7.9121C24.6339 7.92994 24.5035 8.00245 24.4131 8.1144C24.3226 8.22635 24.2791 8.36901 24.2916 8.5124C24.3041 8.65578 24.3718 8.78872 24.4803 8.88327C25.5398 9.74145 26.4317 10.788 27.111 11.9702C27.8453 13.2327 28.3224 14.6281 28.515 16.0759C28.7075 17.5237 28.6116 18.9953 28.2329 20.4058C27.8551 21.8268 27.199 23.1587 26.3028 24.3243C25.4066 25.49 24.288 26.4662 23.0118 27.1964L23.0097 27.1975C20.7735 28.5165 18.1362 28.9832 15.5832 28.5118C15.5495 28.5059 15.5153 28.503 15.4811 28.5033ZM9.4274 26.8104C9.21662 26.8108 9.01359 26.731 8.85956 26.5871C7.93657 25.7258 7.22412 24.8071 6.68074 23.7788C5.85764 22.3597 5.32307 20.792 5.10774 19.1657C4.8924 17.5394 5.00055 15.8865 5.42598 14.3021C5.85069 12.7045 6.58819 11.2071 7.59576 9.89649C8.60333 8.58592 9.86093 7.48831 11.2957 6.66723C13.3825 5.46478 15.7726 4.89163 18.1778 5.0169C18.3925 5.03561 18.5917 5.13678 18.7334 5.29917C18.8752 5.46157 18.9485 5.67255 18.9381 5.88786C18.9276 6.10317 18.8342 6.30606 18.6774 6.45395C18.5205 6.60185 18.3125 6.68324 18.097 6.68106C16.0112 6.57172 13.9384 7.06805 12.1283 8.11021C10.8838 8.82256 9.79289 9.77467 8.91878 10.9114C8.04467 12.0482 7.40469 13.3471 7.0359 14.7328C6.66492 16.1137 6.57203 17.5545 6.7626 18.9716C6.95318 20.3887 7.42343 21.7538 8.14605 22.9877C8.60329 23.8543 9.20728 24.6327 9.99629 25.3696C10.0763 25.444 10.1409 25.5335 10.1861 25.633C10.2314 25.7324 10.2565 25.8399 10.26 25.9491C10.2665 26.1162 10.2222 26.2813 10.133 26.4228C10.0438 26.5642 9.91383 26.6752 9.76023 26.7413C9.6552 26.7869 9.54191 26.8105 9.4274 26.8104ZM17.5483 5.27955C15.3854 5.27955 13.2842 5.83781 11.434 6.90755C10.0311 7.71075 8.80146 8.78429 7.81636 10.066C6.83125 11.3477 6.11022 12.8121 5.69501 14.3745C5.27893 15.9238 5.17315 17.5401 5.38374 19.1305C5.59433 20.7209 6.11714 22.2539 6.92212 23.6416L6.92531 23.6469C7.4538 24.6476 8.14818 25.5429 9.04884 26.383C9.12874 26.459 9.22957 26.5094 9.33836 26.5277C9.44715 26.546 9.55893 26.5314 9.65932 26.4856C9.75971 26.4399 9.84413 26.3652 9.90171 26.2711C9.9593 26.177 9.98742 26.0678 9.98247 25.9576C9.98006 25.8849 9.96332 25.8134 9.93321 25.7471C9.9031 25.6809 9.86022 25.6212 9.80701 25.5716C8.99461 24.8145 8.37148 24.0117 7.90041 23.1163C7.14495 21.8275 6.65978 20.3984 6.47445 18.9161C6.29545 17.4919 6.39513 16.0466 6.76794 14.6605C7.14598 13.2393 7.8022 11.9073 8.69859 10.7415C9.59499 9.57568 10.7137 8.59928 11.9901 7.86883C13.8464 6.80067 15.972 6.29216 18.1108 6.40458C18.2526 6.40305 18.3885 6.34738 18.4907 6.24895C18.5928 6.15053 18.6535 6.01679 18.6603 5.87511C18.6671 5.73342 18.6195 5.5945 18.5272 5.48676C18.4349 5.37901 18.305 5.3106 18.1639 5.2955C17.9598 5.28487 17.7546 5.28061 17.5483 5.28061V5.27955ZM24.6175 7.28292L28.2286 7.9741C28.654 8.08044 28.973 8.50472 28.8666 8.929V8.98216C28.7603 9.40751 28.335 9.72651 27.9096 9.62018L24.2985 8.929C23.8731 8.82266 23.5541 8.39732 23.6604 7.97304V7.91987C23.7668 7.49453 24.1921 7.17658 24.6175 7.28185V7.28292ZM28.0776 9.72332C28.0153 9.72369 27.9532 9.71655 27.8926 9.70206L24.2783 9.01087C24.0487 8.9517 23.8479 8.81209 23.7125 8.61743C23.645 8.52422 23.598 8.41771 23.5747 8.30497C23.5514 8.19222 23.5524 8.07582 23.5775 7.96347V7.9103L23.5807 7.89967C23.703 7.41052 24.1857 7.09151 24.6345 7.20104L28.2488 7.89222C28.4783 7.95112 28.679 8.09034 28.8145 8.2846C28.9538 8.48558 29.0017 8.71739 28.9496 8.93963V8.9928L28.9464 9.00343C28.8878 9.23271 28.7489 9.4334 28.5551 9.56914C28.4154 9.66815 28.2488 9.72197 28.0776 9.72332ZM24.3165 8.84818L27.9298 9.53936C28.0208 9.56081 28.1153 9.56231 28.2069 9.54377C28.2985 9.52523 28.385 9.48709 28.4604 9.43196C28.6186 9.32111 28.7327 9.1581 28.7826 8.97153V8.91836L28.7848 8.90879C28.8062 8.81807 28.8078 8.72379 28.7894 8.6324C28.7711 8.54101 28.7332 8.45465 28.6784 8.37924C28.5662 8.21878 28.4002 8.10375 28.2106 8.05492L24.5973 7.36373C24.2368 7.27335 23.8487 7.53387 23.7445 7.9305V7.98367L23.7423 7.9943C23.721 8.08503 23.7194 8.17929 23.7378 8.27067C23.7561 8.36206 23.7939 8.44841 23.8487 8.52386C23.9592 8.6823 24.1294 8.80033 24.3165 8.84818ZM6.50635 24.8092L10.1186 25.5004C10.5439 25.6067 10.8619 26.031 10.7555 26.4553V26.5084C10.6492 26.9338 10.2239 27.2528 9.79851 27.1465L6.18841 26.4553C5.76306 26.3489 5.44405 25.9236 5.55039 25.4993V25.4461C5.60356 25.0208 6.08207 24.7029 6.50741 24.8092H6.50635ZM9.96333 27.2496C9.90244 27.2498 9.84174 27.2426 9.78256 27.2283L6.16714 26.5371C5.68012 26.4149 5.36218 25.9374 5.46745 25.4897V25.4366C5.48476 25.3211 5.52631 25.2107 5.58935 25.1124C5.6524 25.0142 5.73551 24.9304 5.83324 24.8666C5.93225 24.7963 6.04499 24.7476 6.16409 24.7237C6.28319 24.6999 6.40598 24.7015 6.52443 24.7284L10.1388 25.4196C10.3681 25.4782 10.5688 25.617 10.7045 25.8109C10.8427 26.0118 10.8906 26.2437 10.8385 26.4659V26.5191L10.8363 26.5297C10.73 26.9529 10.3546 27.2496 9.96439 27.2496H9.96333ZM6.20755 26.3745L9.82084 27.0656C10.1803 27.155 10.5684 26.8955 10.6737 26.4978V26.4446L10.6758 26.4351C10.6971 26.3443 10.6987 26.2501 10.6803 26.1587C10.662 26.0673 10.6242 25.981 10.5694 25.9055C10.4571 25.7451 10.2912 25.6301 10.1016 25.5812L6.48721 24.89C6.39123 24.8685 6.29177 24.8675 6.19538 24.8871C6.09898 24.9067 6.00782 24.9465 5.92788 25.0038C5.85071 25.054 5.78485 25.1197 5.7345 25.1968C5.68415 25.2739 5.65042 25.3606 5.63546 25.4515V25.5099L5.63227 25.5206C5.54188 25.8821 5.80453 26.2724 6.20648 26.3745H6.20755Z" fill="#14FD87"/>
<path d="M18.385 21.6518C17.8967 22.1408 17.1042 22.1408 16.6159 21.6518L13.4151 18.4463C12.9273 17.9578 12.9279 17.1663 13.4164 16.6785L16.6172 13.4824C17.1052 12.9951 17.8957 12.9951 18.3837 13.4824L21.5845 16.6785C22.073 17.1663 22.0736 17.9578 21.5858 18.4463L18.385 21.6518Z" stroke="#14FD87" stroke-width="1.5"/>
</svg>
