<svg width="18" height="18" viewBox="0 0 18 18" fill="none" xmlns="http://www.w3.org/2000/svg">
<path d="M6.98567 3.77184V8.75957C6.98567 9.82006 7.84785 10.6844 8.9105 10.6844H13.7473C13.5275 11.9259 12.911 13.0683 11.9842 13.9435C10.9388 14.9285 9.57438 15.4997 8.141 15.5471C8.06987 15.5493 7.99874 15.5514 7.92761 15.5514C7.10638 15.5514 6.31317 15.3898 5.57169 15.0708C4.85607 14.7625 4.22021 14.3228 3.67919 13.7646C3.13817 13.2041 2.72001 12.5532 2.43765 11.8268C2.1445 11.0724 2.00871 10.2705 2.03673 9.44285C2.09062 7.85643 2.65104 6.41012 3.61668 5.37334C4.09089 4.8625 4.65131 4.46374 5.27854 4.19C5.80879 3.95721 6.38214 3.8171 6.98567 3.77184ZM7.43185 2.71997C3.68135 2.71997 1.13144 5.6902 1.00427 9.40836C0.868472 13.3787 3.99173 16.586 7.92761 16.586C8.00951 16.586 8.09358 16.5839 8.17764 16.5817C11.6716 16.4632 14.5082 13.7581 14.8402 10.3223C14.8747 9.96232 14.5901 9.64978 14.228 9.64978H8.90834C8.4169 9.64978 8.01814 9.25102 8.01814 8.75957V3.41187C8.02029 2.92043 7.71421 2.71997 7.43185 2.71997Z" fill="#00C863"/>
<path d="M10.3115 3.03462C10.3158 3.03462 10.3201 3.03462 10.3266 3.03678C11.4259 3.2437 12.4411 3.75886 13.2645 4.52404C14.0835 5.28492 14.672 6.25488 14.963 7.3283C14.9651 7.33692 14.9716 7.35847 14.9522 7.38218C14.9328 7.40805 14.9112 7.40805 14.9005 7.40805H10.3115C10.277 7.40805 10.2468 7.38003 10.2468 7.34339V3.09928C10.2468 3.05402 10.2899 3.03462 10.3115 3.03462ZM10.3115 2C9.71873 2 9.21436 2.48067 9.21436 3.09928V7.34339C9.21436 7.95123 9.7058 8.44267 10.3136 8.44267H14.9005C15.6247 8.44267 16.1506 7.75508 15.9609 7.05887C15.2669 4.49602 13.1545 2.51731 10.5163 2.0194C10.4473 2.00647 10.3783 2 10.3115 2Z" fill="#14FD87"/>
</svg>
