<svg width="20" height="20" viewBox="0 0 20 20" fill="none" xmlns="http://www.w3.org/2000/svg">
<path d="M10 0.3125C4.64844 0.3125 0.3125 4.64844 0.3125 10C0.3125 15.3516 4.64844 19.6875 10 19.6875C15.3516 19.6875 19.6875 15.3516 19.6875 10C19.6875 4.64844 15.3516 0.3125 10 0.3125ZM14.7578 6.94922L13.168 14.4414C13.0508 14.9727 12.7344 15.1016 12.293 14.8516L9.87109 13.0664L8.70312 14.1914C8.57422 14.3203 8.46484 14.4297 8.21484 14.4297L8.38672 11.9648L12.875 7.91016C13.0703 7.73828 12.832 7.64062 12.5742 7.8125L7.02734 11.3047L4.63672 10.5586C4.11719 10.3945 4.10547 10.0391 4.74609 9.78906L14.0859 6.1875C14.5195 6.03125 14.8984 6.29297 14.7578 6.94922Z" fill="white" fill-opacity="0.8"/>
</svg>
